<svg xmlns="http://www.w3.org/2000/svg" width="618.1940307617188" height="686.4488525390625" viewBox="-166.84764099121094 -417.5107421875 618.1940307617188 686.4488525390625"><title>Neo4j Graph Visualization</title><desc>Created using Neo4j (http://www.neo4j.com/)</desc><g class="layer relationships"><g class="relationship" transform="translate(257.7712087479347 -157.69248837422626) rotate(498.59595038094835)"><path class="outline" fill="#A5ABB6" stroke="none" d="M 25 0.5 L 52.917659698008265 0.5 L 52.917659698008265 -0.5 L 25 -0.5 Z M 89.91765969800826 0.5 L 117.83531939601653 0.5 L 117.83531939601653 3.5 L 124.83531939601653 0 L 117.83531939601653 -3.5 L 117.83531939601653 -0.5 L 89.91765969800826 -0.5 Z"/><text text-anchor="middle" pointer-events="none" font-size="8px" fill="#000000" x="71.41765969800826" y="3" transform="rotate(180 71.41765969800826 0)" font-family="sans-serif">mentions</text></g><g class="relationship" transform="translate(-41.94988795448464 14.474752943424004) rotate(338.6913532651022)"><path class="outline" fill="#A5ABB6" stroke="none" d="M 25 0.5 L 78.54081682476742 0.5 L 78.54081682476742 -0.5 L 25 -0.5 Z M 115.54081682476742 0.5 L 169.08163364953484 0.5 L 169.08163364953484 3.5 L 176.08163364953484 0 L 169.08163364953484 -3.5 L 169.08163364953484 -0.5 L 115.54081682476742 -0.5 Z"/><text text-anchor="middle" pointer-events="none" font-size="8px" fill="#000000" x="97.04081682476742" y="3" font-family="sans-serif">mentions</text></g><g class="relationship" transform="translate(15.426895280448159 32.618731567613274) rotate(324.9356474350269)"><path class="outline" fill="#A5ABB6" stroke="none" d="M 24.018736134675446,6.953439040707552 L 24.277555179777966,5.987513214418485 A 208.07300335889587 208.07300335889587 0 0 0 57.43225748676055,12.045350456774997 L 57.33278012352819,13.04039028221132 A 209.07300335889587 209.07300335889587 0 0 1 24.018736134675446,6.953439040707552 Z M 94.37064748977525,13.445756474340243 L 94.29297205579702,12.448777774990901 A 208.07300335889587 208.07300335889587 0 0 0 127.57231826566753,7.118037398355338 L 126.85946980027127,4.203960003126756 L 134.4906402654336,5.940403878302162 L 128.52278288619587,11.00347392532678 L 127.80993442079962,8.089396530098199 A 209.07300335889587 209.07300335889587 0 0 1 94.37064748977525,13.445756474340243"/><text text-anchor="middle" pointer-events="none" font-size="8px" fill="#000000" x="75.84819111343629" y="16.564938019724764" font-family="sans-serif">mentions</text></g><g class="relationship" transform="translate(40.06228294707101 -109.90836330694457) rotate(385.9746518031209)"><path class="outline" fill="#A5ABB6" stroke="none" d="M 25 0.5 L 36.57854042213785 0.5 L 36.57854042213785 -0.5 L 25 -0.5 Z M 73.57854042213785 0.5 L 85.1570808442757 0.5 L 85.1570808442757 3.5 L 92.1570808442757 0 L 85.1570808442757 -3.5 L 85.1570808442757 -0.5 L 73.57854042213785 -0.5 Z"/><text text-anchor="middle" pointer-events="none" font-size="8px" fill="#000000" x="55.07854042213785" y="3" font-family="sans-serif">mentions</text></g><g class="relationship" transform="translate(-67.11284698868478 -163.37268024178042) rotate(386.24644924856744)"><path class="outline" fill="#A5ABB6" stroke="none" d="M 25 0.5 L 96.46242187337342 0.5 L 96.46242187337342 -0.5 L 25 -0.5 Z M 133.46242187337342 0.5 L 204.92484374674683 0.5 L 204.92484374674683 3.5 L 211.92484374674683 0 L 204.92484374674683 -3.5 L 204.92484374674683 -0.5 L 133.46242187337342 -0.5 Z"/><text text-anchor="middle" pointer-events="none" font-size="8px" fill="#000000" x="114.96242187337342" y="3" font-family="sans-serif">mentions</text></g><g class="relationship" transform="translate(26.50931036814514 103.49699997837162) rotate(306.2554648676554)"><path class="outline" fill="#A5ABB6" stroke="none" d="M 25 0.5 L 78.50597831015041 0.5 L 78.50597831015041 -0.5 L 25 -0.5 Z M 115.50597831015041 0.5 L 169.01195662030082 0.5 L 169.01195662030082 3.5 L 176.01195662030082 0 L 169.01195662030082 -3.5 L 169.01195662030082 -0.5 L 115.50597831015041 -0.5 Z"/><text text-anchor="middle" pointer-events="none" font-size="8px" fill="#000000" x="97.00597831015041" y="3" font-family="sans-serif">mentions</text></g><g class="relationship" transform="translate(50.73320411123634 158.38942058783226) rotate(293.56739408255925)"><path class="outline" fill="#A5ABB6" stroke="none" d="M 25 0.5 L 96.36589601148276 0.5 L 96.36589601148276 -0.5 L 25 -0.5 Z M 133.36589601148276 0.5 L 204.73179202296552 0.5 L 204.73179202296552 3.5 L 211.73179202296552 0 L 204.73179202296552 -3.5 L 204.73179202296552 -0.5 L 133.36589601148276 -0.5 Z"/><text text-anchor="middle" pointer-events="none" font-size="8px" fill="#000000" x="114.86589601148276" y="3" font-family="sans-serif">mentions</text></g><g class="relationship" transform="translate(-63.40853490723799 -103.62642855073996) rotate(372.1703677136558)"><path class="outline" fill="#A5ABB6" stroke="none" d="M 25 0.5 L 84.79706583950417 0.5 L 84.79706583950417 -0.5 L 25 -0.5 Z M 121.79706583950417 0.5 L 181.59413167900834 0.5 L 181.59413167900834 3.5 L 188.59413167900834 0 L 181.59413167900834 -3.5 L 181.59413167900834 -0.5 L 121.79706583950417 -0.5 Z"/><text text-anchor="middle" pointer-events="none" font-size="8px" fill="#000000" x="103.29706583950417" y="3" font-family="sans-serif">mentions</text></g><g class="relationship" transform="translate(-9.830691952935984 -76.94596550442269) rotate(366.7420995355474)"><path class="outline" fill="#A5ABB6" stroke="none" d="M 25 0.5 L 56.14830891092858 0.5 L 56.14830891092858 -0.5 L 25 -0.5 Z M 93.14830891092858 0.5 L 124.29661782185715 0.5 L 124.29661782185715 3.5 L 131.29661782185715 0 L 124.29661782185715 -3.5 L 124.29661782185715 -0.5 L 93.14830891092858 -0.5 Z"/><text text-anchor="middle" pointer-events="none" font-size="8px" fill="#000000" x="74.64830891092858" y="3" font-family="sans-serif">mentions</text></g><g class="relationship" transform="translate(146.34862514038383 -163.24814369066468) rotate(450.52751732538223)"><path class="outline" fill="#A5ABB6" stroke="none" d="M 25 0.5 L 30.32795457579485 0.5 L 30.32795457579485 -0.5 L 25 -0.5 Z M 67.32795457579485 0.5 L 72.6559091515897 0.5 L 72.6559091515897 3.5 L 79.6559091515897 0 L 72.6559091515897 -3.5 L 72.6559091515897 -0.5 L 67.32795457579485 -0.5 Z"/><text text-anchor="middle" pointer-events="none" font-size="8px" fill="#000000" x="48.82795457579485" y="3" transform="rotate(180 48.82795457579485 0)" font-family="sans-serif">mentions</text></g><g class="relationship" transform="translate(69.61044536676978 60.336004063060834) rotate(302.5021127336522)"><path class="outline" fill="#A5ABB6" stroke="none" d="M 25 0.5 L 48.51024106547591 0.5 L 48.51024106547591 -0.5 L 25 -0.5 Z M 85.51024106547591 0.5 L 109.02048213095182 0.5 L 109.02048213095182 3.5 L 116.02048213095182 0 L 109.02048213095182 -3.5 L 109.02048213095182 -0.5 L 85.51024106547591 -0.5 Z"/><text text-anchor="middle" pointer-events="none" font-size="8px" fill="#000000" x="67.01024106547591" y="3" font-family="sans-serif">mentions</text></g><g class="relationship" transform="translate(-17.189239981903917 -196.36999009264002) rotate(400.2795496051996)"><path class="outline" fill="#A5ABB6" stroke="none" d="M 25 0.5 L 84.55033721601768 0.5 L 84.55033721601768 -0.5 L 25 -0.5 Z M 121.55033721601768 0.5 L 181.10067443203536 0.5 L 181.10067443203536 3.5 L 188.10067443203536 0 L 181.10067443203536 -3.5 L 181.10067443203536 -0.5 L 121.55033721601768 -0.5 Z"/><text text-anchor="middle" pointer-events="none" font-size="8px" fill="#000000" x="103.05033721601768" y="3" font-family="sans-serif">mentions</text></g><g class="relationship" transform="translate(130.16723720645385 162.56167976127483) rotate(273.9363017197795)"><path class="outline" fill="#A5ABB6" stroke="none" d="M 25 0.5 L 88.8406497218228 0.5 L 88.8406497218228 -0.5 L 25 -0.5 Z M 125.8406497218228 0.5 L 189.6812994436456 0.5 L 189.6812994436456 3.5 L 196.6812994436456 0 L 189.6812994436456 -3.5 L 189.6812994436456 -0.5 L 125.8406497218228 -0.5 Z"/><text text-anchor="middle" pointer-events="none" font-size="8px" fill="#000000" x="107.3406497218228" y="3" font-family="sans-serif">mentions</text></g><g class="relationship" transform="translate(111.99627726475745 -260.8922787516542) rotate(440.62784996200946)"><path class="outline" fill="#A5ABB6" stroke="none" d="M 25 0.5 L 80.51624924507868 0.5 L 80.51624924507868 -0.5 L 25 -0.5 Z M 117.51624924507868 0.5 L 173.03249849015737 0.5 L 173.03249849015737 3.5 L 180.03249849015737 0 L 173.03249849015737 -3.5 L 173.03249849015737 -0.5 L 117.51624924507868 -0.5 Z"/><text text-anchor="middle" pointer-events="none" font-size="8px" fill="#000000" x="99.01624924507868" y="3" font-family="sans-serif">mentions</text></g><g class="relationship" transform="translate(213.63241712669512 -241.6245540228154) rotate(470.4494516553342)"><path class="outline" fill="#A5ABB6" stroke="none" d="M 25 0.5 L 75.66896279431379 0.5 L 75.66896279431379 -0.5 L 25 -0.5 Z M 112.66896279431379 0.5 L 163.33792558862757 0.5 L 163.33792558862757 3.5 L 170.33792558862757 0 L 163.33792558862757 -3.5 L 163.33792558862757 -0.5 L 112.66896279431379 -0.5 Z"/><text text-anchor="middle" pointer-events="none" font-size="8px" fill="#000000" x="94.16896279431379" y="3" transform="rotate(180 94.16896279431379 0)" font-family="sans-serif">mentions</text></g><g class="relationship" transform="translate(317.21038244533804 -164.9023313513897) rotate(508.2555610049064)"><path class="outline" fill="#A5ABB6" stroke="none" d="M 25 0.5 L 79.02577379633223 0.5 L 79.02577379633223 -0.5 L 25 -0.5 Z M 116.02577379633223 0.5 L 170.05154759266446 0.5 L 170.05154759266446 3.5 L 177.05154759266446 0 L 170.05154759266446 -3.5 L 170.05154759266446 -0.5 L 116.02577379633223 -0.5 Z"/><text text-anchor="middle" pointer-events="none" font-size="8px" fill="#000000" x="97.52577379633223" y="3" transform="rotate(180 97.52577379633223 0)" font-family="sans-serif">mentions</text></g><g class="relationship" transform="translate(189.7461137585683 169.4733804930855) rotate(258.99305119261413)"><path class="outline" fill="#A5ABB6" stroke="none" d="M 25 0.5 L 94.17212367080575 0.5 L 94.17212367080575 -0.5 L 25 -0.5 Z M 131.17212367080575 0.5 L 200.3442473416115 0.5 L 200.3442473416115 3.5 L 207.3442473416115 0 L 200.3442473416115 -3.5 L 200.3442473416115 -0.5 L 131.17212367080575 -0.5 Z"/><text text-anchor="middle" pointer-events="none" font-size="8px" fill="#000000" x="112.67212367080575" y="3" transform="rotate(180 112.67212367080575 0)" font-family="sans-serif">mentions</text></g><g class="relationship" transform="translate(157.30931763261745 -221.91261885768495) rotate(454.1759440610734)"><path class="outline" fill="#A5ABB6" stroke="none" d="M 25 0.5 L 59.875341997310656 0.5 L 59.875341997310656 -0.5 L 25 -0.5 Z M 96.87534199731066 0.5 L 131.7506839946213 0.5 L 131.7506839946213 3.5 L 138.7506839946213 0 L 131.7506839946213 -3.5 L 131.7506839946213 -0.5 L 96.87534199731066 -0.5 Z"/><text text-anchor="middle" pointer-events="none" font-size="8px" fill="#000000" x="78.37534199731066" y="3" transform="rotate(180 78.37534199731066 0)" font-family="sans-serif">mentions</text></g><g class="relationship" transform="translate(92.81875618427627 115.64171241393856) rotate(286.78814217159595)"><path class="outline" fill="#A5ABB6" stroke="none" d="M 25 0.5 L 68.99757202693071 0.5 L 68.99757202693071 -0.5 L 25 -0.5 Z M 105.99757202693071 0.5 L 149.99514405386142 0.5 L 149.99514405386142 3.5 L 156.99514405386142 0 L 149.99514405386142 -3.5 L 149.99514405386142 -0.5 L 105.99757202693071 -0.5 Z"/><text text-anchor="middle" pointer-events="none" font-size="8px" fill="#000000" x="87.49757202693071" y="3" font-family="sans-serif">mentions</text></g><g class="relationship" transform="translate(202.64140133567153 -182.94739921443772) rotate(474.7233370498431)"><path class="outline" fill="#A5ABB6" stroke="none" d="M 25 0.5 L 46.449598334836665 0.5 L 46.449598334836665 -0.5 L 25 -0.5 Z M 83.44959833483667 0.5 L 104.89919666967333 0.5 L 104.89919666967333 3.5 L 111.89919666967333 0 L 104.89919666967333 -3.5 L 104.89919666967333 -0.5 L 83.44959833483667 -0.5 Z"/><text text-anchor="middle" pointer-events="none" font-size="8px" fill="#000000" x="64.94959833483667" y="3" transform="rotate(180 64.94959833483667 0)" font-family="sans-serif">mentions</text></g><g class="relationship" transform="translate(195.68785025927798 109.77082701115587) rotate(253.3655536157026)"><path class="outline" fill="#A5ABB6" stroke="none" d="M 25 0.5 L 65.86066061733702 0.5 L 65.86066061733702 -0.5 L 25 -0.5 Z M 102.86066061733702 0.5 L 143.72132123467404 0.5 L 143.72132123467404 3.5 L 150.72132123467404 0 L 143.72132123467404 -3.5 L 143.72132123467404 -0.5 L 102.86066061733702 -0.5 Z"/><text text-anchor="middle" pointer-events="none" font-size="8px" fill="#000000" x="84.36066061733702" y="3" transform="rotate(180 84.36066061733702 0)" font-family="sans-serif">mentions</text></g><g class="relationship" transform="translate(142.70441999009628 81.62982848785104) rotate(271.0951699237318)"><path class="outline" fill="#A5ABB6" stroke="none" d="M 25 0.5 L 48.12605948944521 0.5 L 48.12605948944521 -0.5 L 25 -0.5 Z M 85.12605948944521 0.5 L 108.25211897889042 0.5 L 108.25211897889042 3.5 L 115.25211897889042 0 L 108.25211897889042 -3.5 L 108.25211897889042 -0.5 L 85.12605948944521 -0.5 Z"/><text text-anchor="middle" pointer-events="none" font-size="8px" fill="#000000" x="66.62605948944521" y="3" font-family="sans-serif">mentions</text></g><g class="relationship" transform="translate(-26.55997515836664 75.54109054469252) rotate(322.0414980064663)"><path class="outline" fill="#A5ABB6" stroke="none" d="M 25 0.5 L 87.03903099370429 0.5 L 87.03903099370429 -0.5 L 25 -0.5 Z M 124.03903099370429 0.5 L 186.07806198740857 0.5 L 186.07806198740857 3.5 L 193.07806198740857 0 L 186.07806198740857 -3.5 L 186.07806198740857 -0.5 L 124.03903099370429 -0.5 Z"/><text text-anchor="middle" pointer-events="none" font-size="8px" fill="#000000" x="105.53903099370429" y="3" font-family="sans-serif">mentions</text></g><g class="relationship" transform="translate(-13.517657390382226 -136.57820469450655) rotate(386.1395002214789)"><path class="outline" fill="#A5ABB6" stroke="none" d="M 25 0.5 L 66.5031071753855 0.5 L 66.5031071753855 -0.5 L 25 -0.5 Z M 103.5031071753855 0.5 L 145.006214350771 0.5 L 145.006214350771 3.5 L 152.006214350771 0 L 145.006214350771 -3.5 L 145.006214350771 -0.5 L 103.5031071753855 -0.5 Z"/><text text-anchor="middle" pointer-events="none" font-size="8px" fill="#000000" x="85.0031071753855" y="3" font-family="sans-serif">mentions</text></g><g class="relationship" transform="translate(281.2213958901205 -212.62842244663662) rotate(491.4081738130246)"><path class="outline" fill="#A5ABB6" stroke="none" d="M 25 0.5 L 80.68554572284478 0.5 L 80.68554572284478 -0.5 L 25 -0.5 Z M 117.68554572284478 0.5 L 173.37109144568956 0.5 L 173.37109144568956 3.5 L 180.37109144568956 0 L 173.37109144568956 -3.5 L 173.37109144568956 -0.5 L 117.68554572284478 -0.5 Z"/><text text-anchor="middle" pointer-events="none" font-size="8px" fill="#000000" x="99.18554572284478" y="3" transform="rotate(180 99.18554572284478 0)" font-family="sans-serif">mentions</text></g><g class="relationship" transform="translate(249.09439148460888 137.0629423164367) rotate(242.07418908361018)"><path class="outline" fill="#A5ABB6" stroke="none" d="M 25 0.5 L 88.72297085452264 0.5 L 88.72297085452264 -0.5 L 25 -0.5 Z M 125.72297085452264 0.5 L 189.4459417090453 0.5 L 189.4459417090453 3.5 L 196.4459417090453 0 L 189.4459417090453 -3.5 L 189.4459417090453 -0.5 L 125.72297085452264 -0.5 Z"/><text text-anchor="middle" pointer-events="none" font-size="8px" fill="#000000" x="107.22297085452264" y="3" transform="rotate(180 107.22297085452264 0)" font-family="sans-serif">mentions</text></g><g class="relationship" transform="translate(222.72540862822618 56.22926546830036) rotate(236.03799656337105)"><path class="outline" fill="#A5ABB6" stroke="none" d="M 25 0.5 L 47.22160395297631 0.5 L 47.22160395297631 -0.5 L 25 -0.5 Z M 84.22160395297631 0.5 L 106.44320790595262 0.5 L 106.44320790595262 3.5 L 113.44320790595262 0 L 106.44320790595262 -3.5 L 106.44320790595262 -0.5 L 84.22160395297631 -0.5 Z"/><text text-anchor="middle" pointer-events="none" font-size="8px" fill="#000000" x="65.72160395297631" y="3" transform="rotate(180 65.72160395297631 0)" font-family="sans-serif">mentions</text></g><g class="relationship" transform="translate(325.2365252737405 49.089075007871834) rotate(210.91099389326394)"><path class="outline" fill="#A5ABB6" stroke="none" d="M 25 0.5 L 82.81264452491831 0.5 L 82.81264452491831 -0.5 L 25 -0.5 Z M 119.81264452491831 0.5 L 177.62528904983662 0.5 L 177.62528904983662 3.5 L 184.62528904983662 0 L 177.62528904983662 -3.5 L 177.62528904983662 -0.5 L 119.81264452491831 -0.5 Z"/><text text-anchor="middle" pointer-events="none" font-size="8px" fill="#000000" x="101.31264452491831" y="3" transform="rotate(180 101.31264452491831 0)" font-family="sans-serif">mentions</text></g><g class="relationship" transform="translate(276.1383931463292 83.5536377328535) rotate(227.3913956037478)"><path class="outline" fill="#A5ABB6" stroke="none" d="M 25 0.5 L 74.57010244139285 0.5 L 74.57010244139285 -0.5 L 25 -0.5 Z M 111.57010244139285 0.5 L 161.1402048827857 0.5 L 161.1402048827857 3.5 L 168.1402048827857 0 L 161.1402048827857 -3.5 L 161.1402048827857 -0.5 L 111.57010244139285 -0.5 Z"/><text text-anchor="middle" pointer-events="none" font-size="8px" fill="#000000" x="93.07010244139285" y="3" transform="rotate(180 93.07010244139285 0)" font-family="sans-serif">mentions</text></g><g class="relationship" transform="translate(353.01468273963985 -116.96638495488455) rotate(524.2980395417004)"><path class="outline" fill="#A5ABB6" stroke="none" d="M 25 0.5 L 85.83908754540572 0.5 L 85.83908754540572 -0.5 L 25 -0.5 Z M 122.83908754540572 0.5 L 183.67817509081144 0.5 L 183.67817509081144 3.5 L 190.67817509081144 0 L 183.67817509081144 -3.5 L 183.67817509081144 -0.5 L 122.83908754540572 -0.5 Z"/><text text-anchor="middle" pointer-events="none" font-size="8px" fill="#000000" x="104.33908754540572" y="3" transform="rotate(180 104.33908754540572 0)" font-family="sans-serif">mentions</text></g><g class="relationship" transform="translate(328.39537158967613 -10.825643250708264) rotate(194.62943643998017)"><path class="outline" fill="#A5ABB6" stroke="none" d="M 25 0.5 L 72.57118689001767 0.5 L 72.57118689001767 -0.5 L 25 -0.5 Z M 109.57118689001767 0.5 L 157.14237378003534 0.5 L 157.14237378003534 3.5 L 164.14237378003534 0 L 157.14237378003534 -3.5 L 157.14237378003534 -0.5 L 109.57118689001767 -0.5 Z"/><text text-anchor="middle" pointer-events="none" font-size="8px" fill="#000000" x="91.07118689001767" y="3" transform="rotate(180 91.07118689001767 0)" font-family="sans-serif">mentions</text></g><g class="relationship" transform="translate(123.20875293973782 -319.50723400825706) rotate(445.14177038525526)"><path class="outline" fill="#A5ABB6" stroke="none" d="M 25 0.5 L 108.92565812347561 0.5 L 108.92565812347561 -0.5 L 25 -0.5 Z M 145.9256581234756 0.5 L 229.85131624695123 0.5 L 229.85131624695123 3.5 L 236.85131624695123 0 L 229.85131624695123 -3.5 L 229.85131624695123 -0.5 L 145.9256581234756 -0.5 Z"/><text text-anchor="middle" pointer-events="none" font-size="8px" fill="#000000" x="127.42565812347561" y="3" font-family="sans-serif">mentions</text></g><g class="relationship" transform="translate(168.40007689883979 -280.67565654769606) rotate(455.916685391835)"><path class="outline" fill="#A5ABB6" stroke="none" d="M 25 0.5 L 89.63418631985509 0.5 L 89.63418631985509 -0.5 L 25 -0.5 Z M 126.63418631985509 0.5 L 191.26837263971018 0.5 L 191.26837263971018 3.5 L 198.26837263971018 0 L 191.26837263971018 -3.5 L 191.26837263971018 -0.5 L 126.63418631985509 -0.5 Z"/><text text-anchor="middle" pointer-events="none" font-size="8px" fill="#000000" x="108.13418631985509" y="3" transform="rotate(180 108.13418631985509 0)" font-family="sans-serif">mentions</text></g><g class="relationship" transform="translate(36.345206420112504 -169.72594378073518) rotate(405.54371906497477)"><path class="outline" fill="#A5ABB6" stroke="none" d="M 25 0.5 L 55.84505386571203 0.5 L 55.84505386571203 -0.5 L 25 -0.5 Z M 92.84505386571203 0.5 L 123.69010773142406 0.5 L 123.69010773142406 3.5 L 130.69010773142406 0 L 123.69010773142406 -3.5 L 123.69010773142406 -0.5 L 92.84505386571203 -0.5 Z"/><text text-anchor="middle" pointer-events="none" font-size="8px" fill="#000000" x="74.34505386571203" y="3" font-family="sans-serif">mentions</text></g><g class="relationship" transform="translate(89.91750360722274 -143.11794138184368) rotate(416.72487843767635)"><path class="outline" fill="#A5ABB6" stroke="none" d="M 25 0.5 L 28.548237848858996 0.5 L 28.548237848858996 -0.5 L 25 -0.5 Z M 65.548237848859 0.5 L 69.09647569771799 0.5 L 69.09647569771799 3.5 L 76.09647569771799 0 L 69.09647569771799 -3.5 L 69.09647569771799 -0.5 L 65.548237848859 -0.5 Z"/><text text-anchor="middle" pointer-events="none" font-size="8px" fill="#000000" x="47.048237848858996" y="3" font-family="sans-serif">mentions</text></g><g class="relationship" transform="translate(293.5828778868233 -109.83426604040123) rotate(520.9277924090952)"><path class="outline" fill="#A5ABB6" stroke="none" d="M 25 0.5 L 56.40261203353819 0.5 L 56.40261203353819 -0.5 L 25 -0.5 Z M 93.40261203353819 0.5 L 124.80522406707638 0.5 L 124.80522406707638 3.5 L 131.80522406707638 0 L 124.80522406707638 -3.5 L 124.80522406707638 -0.5 L 93.40261203353819 -0.5 Z"/><text text-anchor="middle" pointer-events="none" font-size="8px" fill="#000000" x="74.90261203353819" y="3" transform="rotate(180 74.90261203353819 0)" font-family="sans-serif">mentions</text></g><g class="relationship" transform="translate(273.62759016317204 14.463561795079551) rotate(209.67032491366786)"><path class="outline" fill="#A5ABB6" stroke="none" d="M 25 0.5 L 51.79691510030608 0.5 L 51.79691510030608 -0.5 L 25 -0.5 Z M 88.79691510030608 0.5 L 115.59383020061216 0.5 L 115.59383020061216 3.5 L 122.59383020061216 0 L 115.59383020061216 -3.5 L 115.59383020061216 -0.5 L 88.79691510030608 -0.5 Z"/><text text-anchor="middle" pointer-events="none" font-size="8px" fill="#000000" x="70.29691510030608" y="3" transform="rotate(180 70.29691510030608 0)" font-family="sans-serif">mentions</text></g><g class="relationship" transform="translate(101.07956715199373 -202.1947855874586) rotate(333.3431214159974)"><path class="outline" fill="#A5ABB6" stroke="none" d="M 25 0.5 L 78.02658032823106 0.5 L 78.02658032823106 -0.5 L 25 -0.5 Z M 115.02658032823106 0.5 L 168.05316065646213 0.5 L 168.05316065646213 3.5 L 175.05316065646213 0 L 168.05316065646213 -3.5 L 168.05316065646213 -0.5 L 115.02658032823106 -0.5 Z"/><text text-anchor="middle" pointer-events="none" font-size="8px" fill="#000000" x="96.52658032823106" y="3" font-family="sans-serif">mentions</text></g><g class="relationship" transform="translate(157.30931763261745 -221.91261885768495) rotate(330.2546778054802)"><path class="outline" fill="#A5ABB6" stroke="none" d="M 25 0.5 L 48.57939889467977 0.5 L 48.57939889467977 -0.5 L 25 -0.5 Z M 85.57939889467977 0.5 L 109.15879778935954 0.5 L 109.15879778935954 3.5 L 116.15879778935954 0 L 109.15879778935954 -3.5 L 109.15879778935954 -0.5 L 85.57939889467977 -0.5 Z"/><text text-anchor="middle" pointer-events="none" font-size="8px" fill="#000000" x="67.07939889467977" y="3" font-family="sans-serif">mentions</text></g><g class="relationship" transform="translate(-120.20772931680247 -343.31855297810154) rotate(387.4481602815464)"><path class="outline" fill="#A5ABB6" stroke="none" d="M 25 0.5 L 54.26596630178712 0.5 L 54.26596630178712 -0.5 L 25 -0.5 Z M 91.26596630178712 0.5 L 120.53193260357423 0.5 L 120.53193260357423 3.5 L 127.53193260357423 0 L 120.53193260357423 -3.5 L 120.53193260357423 -0.5 L 91.26596630178712 -0.5 Z"/><text text-anchor="middle" pointer-events="none" font-size="8px" fill="#000000" x="72.76596630178712" y="3" font-family="sans-serif">mentions</text></g><g class="relationship" transform="translate(257.7712087479347 -157.69248837422626) rotate(279.3467740455734)"><path class="outline" fill="#A5ABB6" stroke="none" d="M 24.018736134675446,6.953439040707552 L 24.277555179777966,5.987513214418485 A 163.38496453260873 163.38496453260873 0 0 0 46.10256058679175,10.268330251719448 L 45.977321797800606,11.260456879591118 A 164.38496453260873 164.38496453260873 0 0 1 24.018736134675446,6.953439040707552 Z M 83.00845638328593,11.730201742029237 L 82.90842435939723,10.735217523965076 A 163.38496453260873 163.38496453260873 0 0 0 104.83499505252404,7.009395042641537 L 104.13229331718776,4.092854236968595 L 111.75737388831695,5.855847794469033 L 105.77193069963909,10.898116116872126 L 105.06922896430281,7.981575311199184 A 164.38496453260873 164.38496453260873 0 0 1 83.00845638328593,11.730201742029237"/><text text-anchor="middle" pointer-events="none" font-size="8px" fill="#000000" x="64.4859603748129" y="15.04153689120534" font-family="sans-serif">mentions</text></g><g class="relationship" transform="translate(257.7712087479347 -157.69248837422626) rotate(279.3467740455734)"><path class="outline" fill="#A5ABB6" stroke="none" d="M 24.018736134675446,-6.953439040707552 L 24.277555179777966,-5.987513214418485 A 163.38496453260873 163.38496453260873 0 0 1 46.1025605867917,-10.26833025171942 L 45.97732179780055,-11.260456879591118 A 164.38496453260873 164.38496453260873 0 0 0 24.018736134675446,-6.953439040707552 Z M 83.0084563832859,-11.730201742029237 L 82.9084243593972,-10.735217523965105 A 163.38496453260873 163.38496453260873 0 0 1 104.83499505252404,-7.009395042641537 L 104.13229331718776,-4.092854236968595 L 111.75737388831695,-5.855847794469033 L 105.77193069963909,-10.898116116872126 L 105.06922896430281,-7.981575311199184 A 164.38496453260873 164.38496453260873 0 0 0 83.0084563832859,-11.730201742029237"/><text text-anchor="middle" pointer-events="none" font-size="8px" fill="#000000" x="64.48596037481286" y="-9.04153689120534" font-family="sans-serif">mentions</text></g><g class="relationship" transform="translate(15.426895280448159 32.618731567613274) rotate(324.9356474350269)"><path class="outline" fill="#A5ABB6" stroke="none" d="M 24.018736134675446,-6.953439040707552 L 24.277555179777966,-5.987513214418485 A 208.07300335889587 208.07300335889587 0 0 1 57.43225748676056,-12.045350456774997 L 57.33278012352821,-13.04039028221132 A 209.07300335889587 209.07300335889587 0 0 0 24.018736134675446,-6.953439040707552 Z M 94.37064748977521,-13.445756474340243 L 94.29297205579698,-12.448777774990901 A 208.07300335889587 208.07300335889587 0 0 1 127.57231826566753,-7.118037398355338 L 126.85946980027127,-4.203960003126756 L 134.4906402654336,-5.940403878302162 L 128.52278288619587,-11.00347392532678 L 127.80993442079962,-8.089396530098199 A 209.07300335889587 209.07300335889587 0 0 0 94.37064748977521,-13.445756474340243"/><text text-anchor="middle" pointer-events="none" font-size="8px" fill="#000000" x="75.84819111343627" y="-10.564938019724764" font-family="sans-serif">mentions</text></g><g class="relationship" transform="translate(101.07956715199373 -202.1947855874586) rotate(432.8530036728416)"><path class="outline" fill="#A5ABB6" stroke="none" d="M 25 0.5 L 53.13886690478385 0.5 L 53.13886690478385 -0.5 L 25 -0.5 Z M 90.13886690478385 0.5 L 118.2777338095677 0.5 L 118.2777338095677 3.5 L 125.2777338095677 0 L 118.2777338095677 -3.5 L 118.2777338095677 -0.5 L 90.13886690478385 -0.5 Z"/><text text-anchor="middle" pointer-events="none" font-size="8px" fill="#000000" x="71.63886690478385" y="3" font-family="sans-serif">mentions</text></g><g class="relationship" transform="translate(40.06228294707101 -109.90836330694457) rotate(261.31686400709503)"><path class="outline" fill="#A5ABB6" stroke="none" d="M 25 0.5 L 60.4961526625933 0.5 L 60.4961526625933 -0.5 L 25 -0.5 Z M 97.4961526625933 0.5 L 132.9923053251866 0.5 L 132.9923053251866 3.5 L 139.9923053251866 0 L 132.9923053251866 -3.5 L 132.9923053251866 -0.5 L 97.4961526625933 -0.5 Z"/><text text-anchor="middle" pointer-events="none" font-size="8px" fill="#000000" x="78.9961526625933" y="3" transform="rotate(180 78.9961526625933 0)" font-family="sans-serif">mentions</text></g><g class="relationship" transform="translate(-67.11284698868478 -163.37268024178042) rotate(436.56462466694524)"><path class="outline" fill="#A5ABB6" stroke="none" d="M 6.953439040707552 24.018736134675446 L 17.306200844808384 62.65576918623819 A 17.916697508022974 17.916697508022974 0 1 1 -17.306200844808384 62.65576918623819 L -8.765172356425198 30.780216918698923 L -4.901469051268926 31.815493099109005 L -6.4704761275630185 24.148145657226706 L -11.662949835292403 30.00375978339136 L -7.79924653013613 31.039035963801442 L -16.340275018519314 62.91458823134071 A 16.916697508022974 16.916697508022974 0 1 0 16.340275018519314 62.91458823134071 L 5.987513214418485 24.277555179777966 Z"/><text text-anchor="middle" pointer-events="none" font-size="8px" fill="#000000" x="0" y="94.20964923467838" font-family="sans-serif">replies_to</text></g><g class="relationship" transform="translate(-67.11284698868478 -163.37268024178042) rotate(306.8828000853231)"><path class="outline" fill="#A5ABB6" stroke="none" d="M 25 0.5 L 46.53464347874814 0.5 L 46.53464347874814 -0.5 L 25 -0.5 Z M 83.53464347874814 0.5 L 105.06928695749627 0.5 L 105.06928695749627 3.5 L 112.06928695749627 0 L 105.06928695749627 -3.5 L 105.06928695749627 -0.5 L 83.53464347874814 -0.5 Z"/><text text-anchor="middle" pointer-events="none" font-size="8px" fill="#000000" x="65.03464347874814" y="3" font-family="sans-serif">mentions</text></g><g class="relationship" transform="translate(50.73320411123634 158.38942058783226) rotate(383.56739408255925)"><path class="outline" fill="#A5ABB6" stroke="none" d="M 6.953439040707552 24.018736134675446 L 17.306200844808384 62.65576918623819 A 17.916697508022974 17.916697508022974 0 1 1 -17.306200844808384 62.65576918623819 L -8.765172356425198 30.780216918698923 L -4.901469051268926 31.815493099109005 L -6.4704761275630185 24.148145657226706 L -11.662949835292403 30.00375978339136 L -7.79924653013613 31.039035963801442 L -16.340275018519314 62.91458823134071 A 16.916697508022974 16.916697508022974 0 1 0 16.340275018519314 62.91458823134071 L 5.987513214418485 24.277555179777966 Z"/><text text-anchor="middle" pointer-events="none" font-size="8px" fill="#000000" x="0" y="94.20964923467838" font-family="sans-serif">replies_to</text></g><g class="relationship" transform="translate(-63.40853490723799 -103.62642855073996) rotate(294.88243885972304)"><path class="outline" fill="#A5ABB6" stroke="none" d="M 25 0.5 L 71.35769193829478 0.5 L 71.35769193829478 -0.5 L 25 -0.5 Z M 108.35769193829478 0.5 L 154.71538387658956 0.5 L 154.71538387658956 3.5 L 161.71538387658956 0 L 154.71538387658956 -3.5 L 154.71538387658956 -0.5 L 108.35769193829478 -0.5 Z"/><text text-anchor="middle" pointer-events="none" font-size="8px" fill="#000000" x="89.85769193829478" y="3" font-family="sans-serif">mentions</text></g><g class="relationship" transform="translate(-9.830691952935984 -76.94596550442269) rotate(277.2619816550897)"><path class="outline" fill="#A5ABB6" stroke="none" d="M 25 0.5 L 76.8245280306606 0.5 L 76.8245280306606 -0.5 L 25 -0.5 Z M 113.8245280306606 0.5 L 165.6490560613212 0.5 L 165.6490560613212 3.5 L 172.6490560613212 0 L 165.6490560613212 -3.5 L 165.6490560613212 -0.5 L 113.8245280306606 -0.5 Z"/><text text-anchor="middle" pointer-events="none" font-size="8px" fill="#000000" x="95.3245280306606" y="3" font-family="sans-serif">mentions</text></g><g class="relationship" transform="translate(146.34862514038383 -163.24814369066468) rotate(316.05317702626627)"><path class="outline" fill="#A5ABB6" stroke="none" d="M 25 0.5 L 70.72447182724525 0.5 L 70.72447182724525 -0.5 L 25 -0.5 Z M 107.72447182724525 0.5 L 153.4489436544905 0.5 L 153.4489436544905 3.5 L 160.4489436544905 0 L 153.4489436544905 -3.5 L 153.4489436544905 -0.5 L 107.72447182724525 -0.5 Z"/><text text-anchor="middle" pointer-events="none" font-size="8px" fill="#000000" x="89.22447182724525" y="3" font-family="sans-serif">mentions</text></g><g class="relationship" transform="translate(146.34862514038383 -163.24814369066468) rotate(219.91675985690438)"><path class="outline" fill="#A5ABB6" stroke="none" d="M 25 0.5 L 63.52741846950609 0.5 L 63.52741846950609 -0.5 L 25 -0.5 Z M 100.52741846950609 0.5 L 139.05483693901218 0.5 L 139.05483693901218 3.5 L 146.05483693901218 0 L 139.05483693901218 -3.5 L 139.05483693901218 -0.5 L 100.52741846950609 -0.5 Z"/><text text-anchor="middle" pointer-events="none" font-size="8px" fill="#000000" x="82.02741846950609" y="3" transform="rotate(180 82.02741846950609 0)" font-family="sans-serif">mentions</text></g><g class="relationship" transform="translate(-17.189239981903917 -196.36999009264002) rotate(292.88021850958086)"><path class="outline" fill="#A5ABB6" stroke="none" d="M 25 0.5 L 25.592292685829598 0.5 L 25.592292685829598 -0.5 L 25 -0.5 Z M 50.5922926858296 0.5 L 51.184585371659196 0.5 L 51.184585371659196 3.5 L 58.184585371659196 0 L 51.184585371659196 -3.5 L 51.184585371659196 -0.5 L 50.5922926858296 -0.5 Z"/><text text-anchor="middle" pointer-events="none" font-size="8px" fill="#000000" x="38.0922926858296" y="3" font-family="sans-serif">me…</text></g><g class="relationship" transform="translate(111.99627726475745 -260.8922787516542) rotate(349.51904016434855)"><path class="outline" fill="#A5ABB6" stroke="none" d="M 25 0.5 L 63.360535094097344 0.5 L 63.360535094097344 -0.5 L 25 -0.5 Z M 100.36053509409734 0.5 L 138.7210701881947 0.5 L 138.7210701881947 3.5 L 145.7210701881947 0 L 138.7210701881947 -3.5 L 138.7210701881947 -0.5 L 100.36053509409734 -0.5 Z"/><text text-anchor="middle" pointer-events="none" font-size="8px" fill="#000000" x="81.86053509409734" y="3" font-family="sans-serif">mentions</text></g><g class="relationship" transform="translate(111.99627726475745 -260.8922787516542) rotate(187.13197792958272)"><path class="outline" fill="#A5ABB6" stroke="none" d="M 25 0.5 L 26.79899809007727 0.5 L 26.79899809007727 -0.5 L 25 -0.5 Z M 63.79899809007727 0.5 L 65.59799618015454 0.5 L 65.59799618015454 3.5 L 72.59799618015454 0 L 65.59799618015454 -3.5 L 65.59799618015454 -0.5 L 63.79899809007727 -0.5 Z"/><text text-anchor="middle" pointer-events="none" font-size="8px" fill="#000000" x="45.29899809007727" y="3" transform="rotate(180 45.29899809007727 0)" font-family="sans-serif">mentions</text></g><g class="relationship" transform="translate(213.63241712669512 -241.6245540228154) rotate(188.9856507241774)"><path class="outline" fill="#A5ABB6" stroke="none" d="M 25 0.5 L 78.47255100574449 0.5 L 78.47255100574449 -0.5 L 25 -0.5 Z M 115.47255100574449 0.5 L 168.94510201148898 0.5 L 168.94510201148898 3.5 L 175.94510201148898 0 L 168.94510201148898 -3.5 L 168.94510201148898 -0.5 L 115.47255100574449 -0.5 Z"/><text text-anchor="middle" pointer-events="none" font-size="8px" fill="#000000" x="96.97255100574449" y="3" transform="rotate(180 96.97255100574449 0)" font-family="sans-serif">mentions</text></g><g class="relationship" transform="translate(213.63241712669512 -241.6245540228154) rotate(322.77414348996376)"><path class="outline" fill="#A5ABB6" stroke="none" d="M 25 0.5 L 25.5924257613568 0.5 L 25.5924257613568 -0.5 L 25 -0.5 Z M 50.5924257613568 0.5 L 51.1848515227136 0.5 L 51.1848515227136 3.5 L 58.1848515227136 0 L 51.1848515227136 -3.5 L 51.1848515227136 -0.5 L 50.5924257613568 -0.5 Z"/><text text-anchor="middle" pointer-events="none" font-size="8px" fill="#000000" x="38.0924257613568" y="3" font-family="sans-serif">me…</text></g><g class="relationship" transform="translate(317.21038244533804 -164.9023313513897) rotate(253.62079955271957)"><path class="outline" fill="#A5ABB6" stroke="none" d="M 25 0.5 L 44.209836391997456 0.5 L 44.209836391997456 -0.5 L 25 -0.5 Z M 81.20983639199746 0.5 L 100.41967278399491 0.5 L 100.41967278399491 3.5 L 107.41967278399491 0 L 100.41967278399491 -3.5 L 100.41967278399491 -0.5 L 81.20983639199746 -0.5 Z"/><text text-anchor="middle" pointer-events="none" font-size="8px" fill="#000000" x="62.709836391997456" y="3" transform="rotate(180 62.709836391997456 0)" font-family="sans-serif">mentions</text></g><g class="relationship" transform="translate(189.7461137585683 169.4733804930855) rotate(348.99305119261413)"><path class="outline" fill="#A5ABB6" stroke="none" d="M 6.953439040707552 24.018736134675446 L 17.306200844808384 62.65576918623819 A 17.916697508022974 17.916697508022974 0 1 1 -17.306200844808384 62.65576918623819 L -8.765172356425198 30.780216918698923 L -4.901469051268926 31.815493099109005 L -6.4704761275630185 24.148145657226706 L -11.662949835292403 30.00375978339136 L -7.79924653013613 31.039035963801442 L -16.340275018519314 62.91458823134071 A 16.916697508022974 16.916697508022974 0 1 0 16.340275018519314 62.91458823134071 L 5.987513214418485 24.277555179777966 Z"/><text text-anchor="middle" pointer-events="none" font-size="8px" fill="#000000" x="0" y="94.20964923467838" font-family="sans-serif">replies_to</text></g><g class="relationship" transform="translate(157.30931763261745 -221.91261885768495) rotate(199.7706278587733)"><path class="outline" fill="#A5ABB6" stroke="none" d="M 25 0.5 L 53.53012711766311 0.5 L 53.53012711766311 -0.5 L 25 -0.5 Z M 90.53012711766311 0.5 L 119.06025423532623 0.5 L 119.06025423532623 3.5 L 126.06025423532623 0 L 119.06025423532623 -3.5 L 119.06025423532623 -0.5 L 90.53012711766311 -0.5 Z"/><text text-anchor="middle" pointer-events="none" font-size="8px" fill="#000000" x="72.03012711766311" y="3" transform="rotate(180 72.03012711766311 0)" font-family="sans-serif">mentions</text></g><g class="relationship" transform="translate(202.64140133567153 -182.94739921443772) rotate(205.65788158237672)"><path class="outline" fill="#A5ABB6" stroke="none" d="M 25 0.5 L 81.99872855872734 0.5 L 81.99872855872734 -0.5 L 25 -0.5 Z M 118.99872855872734 0.5 L 175.99745711745467 0.5 L 175.99745711745467 3.5 L 182.99745711745467 0 L 175.99745711745467 -3.5 L 175.99745711745467 -0.5 L 118.99872855872734 -0.5 Z"/><text text-anchor="middle" pointer-events="none" font-size="8px" fill="#000000" x="100.49872855872734" y="3" transform="rotate(180 100.49872855872734 0)" font-family="sans-serif">mentions</text></g><g class="relationship" transform="translate(202.64140133567153 -182.94739921443772) rotate(305.3178005672919)"><path class="outline" fill="#A5ABB6" stroke="none" d="M 25 0.5 L 44.7929818638374 0.5 L 44.7929818638374 -0.5 L 25 -0.5 Z M 81.7929818638374 0.5 L 101.5859637276748 0.5 L 101.5859637276748 3.5 L 108.5859637276748 0 L 101.5859637276748 -3.5 L 101.5859637276748 -0.5 L 81.7929818638374 -0.5 Z"/><text text-anchor="middle" pointer-events="none" font-size="8px" fill="#000000" x="63.2929818638374" y="3" font-family="sans-serif">mentions</text></g><g class="relationship" transform="translate(-13.517657390382226 -136.57820469450655) rotate(281.86801779837094)"><path class="outline" fill="#A5ABB6" stroke="none" d="M 25 0.5 L 47.70572530776276 0.5 L 47.70572530776276 -0.5 L 25 -0.5 Z M 84.70572530776276 0.5 L 107.41145061552552 0.5 L 107.41145061552552 3.5 L 114.41145061552552 0 L 107.41145061552552 -3.5 L 107.41145061552552 -0.5 L 84.70572530776276 -0.5 Z"/><text text-anchor="middle" pointer-events="none" font-size="8px" fill="#000000" x="66.20572530776276" y="3" font-family="sans-serif">mentions</text></g><g class="relationship" transform="translate(281.2213958901205 -212.62842244663662) rotate(269.02315732952246)"><path class="outline" fill="#A5ABB6" stroke="none" d="M 25 0.5 L 25.665522498278868 0.5 L 25.665522498278868 -0.5 L 25 -0.5 Z M 46.66552249827887 0.5 L 47.331044996557736 0.5 L 47.331044996557736 3.5 L 54.331044996557736 0 L 47.331044996557736 -3.5 L 47.331044996557736 -0.5 L 46.66552249827887 -0.5 Z"/><text text-anchor="middle" pointer-events="none" font-size="8px" fill="#000000" x="36.16552249827887" y="3" transform="rotate(180 36.16552249827887 0)" font-family="sans-serif">m…</text></g><g class="relationship" transform="translate(353.01468273963985 -116.96638495488455) rotate(295.8060742422168)"><path class="outline" fill="#A5ABB6" stroke="none" d="M 6.953439040707552 24.018736134675446 L 17.306200844808384 62.65576918623819 A 17.916697508022974 17.916697508022974 0 1 1 -17.306200844808384 62.65576918623819 L -8.765172356425198 30.780216918698923 L -4.901469051268926 31.815493099109005 L -6.4704761275630185 24.148145657226706 L -11.662949835292403 30.00375978339136 L -7.79924653013613 31.039035963801442 L -16.340275018519314 62.91458823134071 A 16.916697508022974 16.916697508022974 0 1 0 16.340275018519314 62.91458823134071 L 5.987513214418485 24.277555179777966 Z"/><text text-anchor="middle" pointer-events="none" font-size="8px" fill="#000000" x="0" y="94.20964923467838" font-family="sans-serif">replies_to</text></g><g class="relationship" transform="translate(353.01468273963985 -116.96638495488455) rotate(247.3141089427333)"><path class="outline" fill="#A5ABB6" stroke="none" d="M 25 0.5 L 72.82726937093408 0.5 L 72.82726937093408 -0.5 L 25 -0.5 Z M 109.82726937093408 0.5 L 157.65453874186815 0.5 L 157.65453874186815 3.5 L 164.65453874186815 0 L 157.65453874186815 -3.5 L 157.65453874186815 -0.5 L 109.82726937093408 -0.5 Z"/><text text-anchor="middle" pointer-events="none" font-size="8px" fill="#000000" x="91.32726937093408" y="3" transform="rotate(180 91.32726937093408 0)" font-family="sans-serif">mentions</text></g><g class="relationship" transform="translate(123.20875293973782 -319.50723400825706) rotate(369.97725429788284)"><path class="outline" fill="#A5ABB6" stroke="none" d="M 25 0.5 L 57.53289887352037 0.5 L 57.53289887352037 -0.5 L 25 -0.5 Z M 94.53289887352037 0.5 L 127.06579774704073 0.5 L 127.06579774704073 3.5 L 134.06579774704073 0 L 127.06579774704073 -3.5 L 127.06579774704073 -0.5 L 94.53289887352037 -0.5 Z"/><text text-anchor="middle" pointer-events="none" font-size="8px" fill="#000000" x="76.03289887352037" y="3" font-family="sans-serif">mentions</text></g><g class="relationship" transform="translate(123.20875293973782 -319.50723400825706) rotate(533.3472011333381)"><path class="outline" fill="#A5ABB6" stroke="none" d="M 6.953439040707552 24.018736134675446 L 17.306200844808384 62.65576918623819 A 17.916697508022974 17.916697508022974 0 1 1 -17.306200844808384 62.65576918623819 L -8.765172356425198 30.780216918698923 L -4.901469051268926 31.815493099109005 L -6.4704761275630185 24.148145657226706 L -11.662949835292403 30.00375978339136 L -7.79924653013613 31.039035963801442 L -16.340275018519314 62.91458823134071 A 16.916697508022974 16.916697508022974 0 1 0 16.340275018519314 62.91458823134071 L 5.987513214418485 24.277555179777966 Z"/><text text-anchor="middle" pointer-events="none" font-size="8px" fill="#000000" x="0" y="94.20964923467838" transform="rotate(180 0 91.20964923467838)" font-family="sans-serif">replies_to</text></g><g class="relationship" transform="translate(123.20875293973782 -319.50723400825706) rotate(516.7171479687935)"><path class="outline" fill="#A5ABB6" stroke="none" d="M 25 0.5 L 36.817486611849176 0.5 L 36.817486611849176 -0.5 L 25 -0.5 Z M 73.81748661184918 0.5 L 85.63497322369835 0.5 L 85.63497322369835 3.5 L 92.63497322369835 0 L 85.63497322369835 -3.5 L 85.63497322369835 -0.5 L 73.81748661184918 -0.5 Z"/><text text-anchor="middle" pointer-events="none" font-size="8px" fill="#000000" x="55.317486611849176" y="3" transform="rotate(180 55.317486611849176 0)" font-family="sans-serif">mentions</text></g><g class="relationship" transform="translate(168.40007689883979 -280.67565654769606) rotate(537.1362012663775)"><path class="outline" fill="#A5ABB6" stroke="none" d="M 25 0.5 L 54.71914293706001 0.5 L 54.71914293706001 -0.5 L 25 -0.5 Z M 91.71914293706001 0.5 L 121.43828587412003 0.5 L 121.43828587412003 3.5 L 128.43828587412003 0 L 121.43828587412003 -3.5 L 121.43828587412003 -0.5 L 91.71914293706001 -0.5 Z"/><text text-anchor="middle" pointer-events="none" font-size="8px" fill="#000000" x="73.21914293706001" y="3" transform="rotate(180 73.21914293706001 0)" font-family="sans-serif">mentions</text></g><g class="relationship" transform="translate(168.40007689883979 -280.67565654769606) rotate(354.2255979836366)"><path class="outline" fill="#A5ABB6" stroke="none" d="M 25 0.5 L 34.018682299302434 0.5 L 34.018682299302434 -0.5 L 25 -0.5 Z M 71.01868229930244 0.5 L 80.03736459860487 0.5 L 80.03736459860487 3.5 L 87.03736459860487 0 L 80.03736459860487 -3.5 L 80.03736459860487 -0.5 L 71.01868229930244 -0.5 Z"/><text text-anchor="middle" pointer-events="none" font-size="8px" fill="#000000" x="52.518682299302434" y="3" font-family="sans-serif">mentions</text></g><g class="relationship" transform="translate(89.91750360722274 -143.11794138184368) rotate(240.07578087232633)"><path class="outline" fill="#A5ABB6" stroke="none" d="M 24.018736134675446,6.953439040707552 L 24.277555179777966,5.987513214418485 A 190.58537782994904 190.58537782994904 0 0 0 52.98915234576552,11.363285875472798 L 52.880982828412215,12.357418339239842 A 191.58537782994904 191.58537782994904 0 0 1 24.018736134675446,6.953439040707552 Z M 89.91739515630724,12.785808592579343 L 89.83224922992784,11.789440100895177 A 190.58537782994904 190.58537782994904 0 0 0 118.66050842217673,7.079215534083805 L 117.9512856855487,4.164253594392338 L 125.58029007089483,5.910189471900299 L 119.6061387376808,10.965831453672427 L 118.89691600105276,8.050869513980961 A 191.58537782994904 191.58537782994904 0 0 1 89.91739515630724,12.785808592579343"/><text text-anchor="middle" pointer-events="none" font-size="8px" fill="#000000" x="71.39459517554897" y="15.968771179549606" transform="rotate(180 71.39459517554897 12.968771179549606)" font-family="sans-serif">mentions</text></g><g class="relationship" transform="translate(89.91750360722274 -143.11794138184368) rotate(240.07578087232633)"><path class="outline" fill="#A5ABB6" stroke="none" d="M 24.018736134675446,-6.953439040707552 L 24.277555179777966,-5.987513214418485 A 190.58537782994904 190.58537782994904 0 0 1 52.98915234576546,-11.363285875472798 L 52.88098282841216,-12.357418339239842 A 191.58537782994904 191.58537782994904 0 0 0 24.018736134675446,-6.953439040707552 Z M 89.9173951563072,-12.785808592579343 L 89.83224922992778,-11.789440100895177 A 190.58537782994904 190.58537782994904 0 0 1 118.66050842217673,-7.079215534083805 L 117.9512856855487,-4.164253594392338 L 125.58029007089483,-5.910189471900299 L 119.6061387376808,-10.965831453672427 L 118.89691600105276,-8.050869513980961 A 191.58537782994904 191.58537782994904 0 0 0 89.9173951563072,-12.785808592579343"/><text text-anchor="middle" pointer-events="none" font-size="8px" fill="#000000" x="71.39459517554891" y="-9.968771179549606" transform="rotate(180 71.39459517554891 -12.968771179549606)" font-family="sans-serif">mentions</text></g><g class="relationship" transform="translate(293.5828778868233 -109.83426604040123) rotate(265.69350996561485)"><path class="outline" fill="#A5ABB6" stroke="none" d="M 25 0.5 L 69.31465067295589 0.5 L 69.31465067295589 -0.5 L 25 -0.5 Z M 106.31465067295589 0.5 L 150.62930134591178 0.5 L 150.62930134591178 3.5 L 157.62930134591178 0 L 150.62930134591178 -3.5 L 150.62930134591178 -0.5 L 106.31465067295589 -0.5 Z"/><text text-anchor="middle" pointer-events="none" font-size="8px" fill="#000000" x="87.81465067295589" y="3" transform="rotate(180 87.81465067295589 0)" font-family="sans-serif">mentions</text></g></g><g class="layer nodes"><g class="node" transform="translate(257.7712087479347,-157.69248837422626)"><circle class="outline" cx="0" cy="0" r="25" fill="#68BDF6" stroke="#5CA8DB" stroke-width="2px"/><text text-anchor="middle" pointer-events="none" y="5" font-size="10px" fill="#FFFFFF" font-family="sans-serif"> MaxRa…</text></g><g class="node" transform="translate(145.38508077840078,-58.59667020553745)"><circle class="outline" cx="0" cy="0" r="25" fill="#6DCE9E" stroke="#60B58B" stroke-width="2px"/><text text-anchor="middle" pointer-events="none" y="5" font-size="10px" fill="#FFFFFF" font-family="sans-serif"> Car</text></g><g class="node" transform="translate(-41.94988795448464,14.474752943424004)"><circle class="outline" cx="0" cy="0" r="25" fill="#68BDF6" stroke="#5CA8DB" stroke-width="2px"/><text text-anchor="middle" pointer-events="none" y="5" font-size="10px" fill="#FFFFFF" font-family="sans-serif"> sissysp…</text></g><g class="node" transform="translate(15.426895280448159,32.618731567613274)"><circle class="outline" cx="0" cy="0" r="25" fill="#68BDF6" stroke="#5CA8DB" stroke-width="2px"/><text text-anchor="middle" pointer-events="none" y="5" font-size="10px" fill="#FFFFFF" font-family="sans-serif"> playfully…</text></g><g class="node" transform="translate(40.06228294707101,-109.90836330694457)"><circle class="outline" cx="0" cy="0" r="25" fill="#68BDF6" stroke="#5CA8DB" stroke-width="2px"/><text text-anchor="middle" pointer-events="none" y="5" font-size="10px" fill="#FFFFFF" font-family="sans-serif"> xkautos…</text></g><g class="node" transform="translate(-67.11284698868478,-163.37268024178042)"><circle class="outline" cx="0" cy="0" r="25" fill="#68BDF6" stroke="#5CA8DB" stroke-width="2px"/><text text-anchor="middle" pointer-events="none" y="5" font-size="10px" fill="#FFFFFF" font-family="sans-serif"> kendyla…</text></g><g class="node" transform="translate(26.50931036814514,103.49699997837162)"><circle class="outline" cx="0" cy="0" r="25" fill="#68BDF6" stroke="#5CA8DB" stroke-width="2px"/><text text-anchor="middle" pointer-events="none" y="5" font-size="10px" fill="#FFFFFF" font-family="sans-serif"> UGS_UT</text></g><g class="node" transform="translate(50.73320411123634,158.38942058783226)"><circle class="outline" cx="0" cy="0" r="25" fill="#68BDF6" stroke="#5CA8DB" stroke-width="2px"/><text text-anchor="middle" pointer-events="none" y="5" font-size="10px" fill="#FFFFFF" font-family="sans-serif"> videlicets</text></g><g class="node" transform="translate(-63.40853490723799,-103.62642855073996)"><circle class="outline" cx="0" cy="0" r="25" fill="#68BDF6" stroke="#5CA8DB" stroke-width="2px"/><text text-anchor="middle" pointer-events="none" y="5" font-size="10px" fill="#FFFFFF" font-family="sans-serif"> ChilOut…</text></g><g class="node" transform="translate(-9.830691952935984,-76.94596550442269)"><circle class="outline" cx="0" cy="0" r="25" fill="#68BDF6" stroke="#5CA8DB" stroke-width="2px"/><text text-anchor="middle" pointer-events="none" y="5" font-size="10px" fill="#FFFFFF" font-family="sans-serif"> beckygl…</text></g><g class="node" transform="translate(146.34862514038383,-163.24814369066468)"><circle class="outline" cx="0" cy="0" r="25" fill="#68BDF6" stroke="#5CA8DB" stroke-width="2px"/><text text-anchor="middle" pointer-events="none" y="5" font-size="10px" fill="#FFFFFF" font-family="sans-serif"> Alden53</text></g><g class="node" transform="translate(69.61044536676978,60.336004063060834)"><circle class="outline" cx="0" cy="0" r="25" fill="#68BDF6" stroke="#5CA8DB" stroke-width="2px"/><text text-anchor="middle" pointer-events="none" y="5" font-size="10px" fill="#FFFFFF" font-family="sans-serif"> LukeJo…</text></g><g class="node" transform="translate(-17.189239981903917,-196.36999009264002)"><circle class="outline" cx="0" cy="0" r="25" fill="#68BDF6" stroke="#5CA8DB" stroke-width="2px"/><text text-anchor="middle" pointer-events="none" y="5" font-size="10px" fill="#FFFFFF" font-family="sans-serif"> agilix</text></g><g class="node" transform="translate(130.16723720645385,162.56167976127483)"><circle class="outline" cx="0" cy="0" r="25" fill="#68BDF6" stroke="#5CA8DB" stroke-width="2px"/><text text-anchor="middle" pointer-events="none" y="5" font-size="10px" fill="#FFFFFF" font-family="sans-serif"> BibieJo…</text></g><g class="node" transform="translate(111.99627726475745,-260.8922787516542)"><circle class="outline" cx="0" cy="0" r="25" fill="#68BDF6" stroke="#5CA8DB" stroke-width="2px"/><text text-anchor="middle" pointer-events="none" y="5" font-size="10px" fill="#FFFFFF" font-family="sans-serif"> bestaut…</text></g><g class="node" transform="translate(213.63241712669512,-241.6245540228154)"><circle class="outline" cx="0" cy="0" r="25" fill="#68BDF6" stroke="#5CA8DB" stroke-width="2px"/><text text-anchor="middle" pointer-events="none" y="5" font-size="10px" fill="#FFFFFF" font-family="sans-serif"> DeanOs…</text></g><g class="node" transform="translate(317.21038244533804,-164.9023313513897)"><circle class="outline" cx="0" cy="0" r="25" fill="#68BDF6" stroke="#5CA8DB" stroke-width="2px"/><text text-anchor="middle" pointer-events="none" y="5" font-size="10px" fill="#FFFFFF" font-family="sans-serif"> gomerelli</text></g><g class="node" transform="translate(189.7461137585683,169.4733804930855)"><circle class="outline" cx="0" cy="0" r="25" fill="#68BDF6" stroke="#5CA8DB" stroke-width="2px"/><text text-anchor="middle" pointer-events="none" y="5" font-size="10px" fill="#FFFFFF" font-family="sans-serif"> hellomu…</text></g><g class="node" transform="translate(157.30931763261745,-221.91261885768495)"><circle class="outline" cx="0" cy="0" r="25" fill="#68BDF6" stroke="#5CA8DB" stroke-width="2px"/><text text-anchor="middle" pointer-events="none" y="5" font-size="10px" fill="#FFFFFF" font-family="sans-serif"> SimonF…</text></g><g class="node" transform="translate(92.81875618427627,115.64171241393856)"><circle class="outline" cx="0" cy="0" r="25" fill="#68BDF6" stroke="#5CA8DB" stroke-width="2px"/><text text-anchor="middle" pointer-events="none" y="5" font-size="10px" fill="#FFFFFF" font-family="sans-serif"> stacyau…</text></g><g class="node" transform="translate(202.64140133567153,-182.94739921443772)"><circle class="outline" cx="0" cy="0" r="25" fill="#68BDF6" stroke="#5CA8DB" stroke-width="2px"/><text text-anchor="middle" pointer-events="none" y="5" font-size="10px" fill="#FFFFFF" font-family="sans-serif"> nicole_…</text></g><g class="node" transform="translate(195.68785025927798,109.77082701115587)"><circle class="outline" cx="0" cy="0" r="25" fill="#68BDF6" stroke="#5CA8DB" stroke-width="2px"/><text text-anchor="middle" pointer-events="none" y="5" font-size="10px" fill="#FFFFFF" font-family="sans-serif"> rajkuma…</text></g><g class="node" transform="translate(142.70441999009628,81.62982848785104)"><circle class="outline" cx="0" cy="0" r="25" fill="#68BDF6" stroke="#5CA8DB" stroke-width="2px"/><text text-anchor="middle" pointer-events="none" y="5" font-size="10px" fill="#FFFFFF" font-family="sans-serif"> e9c728…</text></g><g class="node" transform="translate(-26.55997515836664,75.54109054469252)"><circle class="outline" cx="0" cy="0" r="25" fill="#68BDF6" stroke="#5CA8DB" stroke-width="2px"/><text text-anchor="middle" pointer-events="none" y="5" font-size="10px" fill="#FFFFFF" font-family="sans-serif"> MotorTr…</text></g><g class="node" transform="translate(-13.517657390382226,-136.57820469450655)"><circle class="outline" cx="0" cy="0" r="25" fill="#68BDF6" stroke="#5CA8DB" stroke-width="2px"/><text text-anchor="middle" pointer-events="none" y="5" font-size="10px" fill="#FFFFFF" font-family="sans-serif"> BrickHu…</text></g><g class="node" transform="translate(281.2213958901205,-212.62842244663662)"><circle class="outline" cx="0" cy="0" r="25" fill="#68BDF6" stroke="#5CA8DB" stroke-width="2px"/><text text-anchor="middle" pointer-events="none" y="5" font-size="10px" fill="#FFFFFF" font-family="sans-serif"> AmexOf…</text></g><g class="node" transform="translate(249.09439148460888,137.0629423164367)"><circle class="outline" cx="0" cy="0" r="25" fill="#68BDF6" stroke="#5CA8DB" stroke-width="2px"/><text text-anchor="middle" pointer-events="none" y="5" font-size="10px" fill="#FFFFFF" font-family="sans-serif"> hejciaja…</text></g><g class="node" transform="translate(222.72540862822618,56.22926546830036)"><circle class="outline" cx="0" cy="0" r="25" fill="#68BDF6" stroke="#5CA8DB" stroke-width="2px"/><text text-anchor="middle" pointer-events="none" y="5" font-size="10px" fill="#FFFFFF" font-family="sans-serif"> VidiOut1</text></g><g class="node" transform="translate(325.2365252737405,49.089075007871834)"><circle class="outline" cx="0" cy="0" r="25" fill="#68BDF6" stroke="#5CA8DB" stroke-width="2px"/><text text-anchor="middle" pointer-events="none" y="5" font-size="10px" fill="#FFFFFF" font-family="sans-serif"> Broketee</text></g><g class="node" transform="translate(276.1383931463292,83.5536377328535)"><circle class="outline" cx="0" cy="0" r="25" fill="#68BDF6" stroke="#5CA8DB" stroke-width="2px"/><text text-anchor="middle" pointer-events="none" y="5" font-size="10px" fill="#FFFFFF" font-family="sans-serif"> JoeScot…</text></g><g class="node" transform="translate(353.01468273963985,-116.96638495488455)"><circle class="outline" cx="0" cy="0" r="25" fill="#68BDF6" stroke="#5CA8DB" stroke-width="2px"/><text text-anchor="middle" pointer-events="none" y="5" font-size="10px" fill="#FFFFFF" font-family="sans-serif"> Thryon</text></g><g class="node" transform="translate(328.39537158967613,-10.825643250708264)"><circle class="outline" cx="0" cy="0" r="25" fill="#68BDF6" stroke="#5CA8DB" stroke-width="2px"/><text text-anchor="middle" pointer-events="none" y="5" font-size="10px" fill="#FFFFFF" font-family="sans-serif"> THLRu…</text></g><g class="node" transform="translate(123.20875293973782,-319.50723400825706)"><circle class="outline" cx="0" cy="0" r="25" fill="#68BDF6" stroke="#5CA8DB" stroke-width="2px"/><text text-anchor="middle" pointer-events="none" y="5" font-size="10px" fill="#FFFFFF" font-family="sans-serif"> sassyra…</text></g><g class="node" transform="translate(168.40007689883979,-280.67565654769606)"><circle class="outline" cx="0" cy="0" r="25" fill="#68BDF6" stroke="#5CA8DB" stroke-width="2px"/><text text-anchor="middle" pointer-events="none" y="5" font-size="10px" fill="#FFFFFF" font-family="sans-serif"> amnesty</text></g><g class="node" transform="translate(36.345206420112504,-169.72594378073518)"><circle class="outline" cx="0" cy="0" r="25" fill="#68BDF6" stroke="#5CA8DB" stroke-width="2px"/><text text-anchor="middle" pointer-events="none" y="5" font-size="10px" fill="#FFFFFF" font-family="sans-serif"> carlyroo</text></g><g class="node" transform="translate(89.91750360722274,-143.11794138184368)"><circle class="outline" cx="0" cy="0" r="25" fill="#68BDF6" stroke="#5CA8DB" stroke-width="2px"/><text text-anchor="middle" pointer-events="none" y="5" font-size="10px" fill="#FFFFFF" font-family="sans-serif"> Lamatth…</text></g><g class="node" transform="translate(293.5828778868233,-109.83426604040123)"><circle class="outline" cx="0" cy="0" r="25" fill="#68BDF6" stroke="#5CA8DB" stroke-width="2px"/><text text-anchor="middle" pointer-events="none" y="5" font-size="10px" fill="#FFFFFF" font-family="sans-serif"> Austinp…</text></g><g class="node" transform="translate(273.62759016317204,14.463561795079551)"><circle class="outline" cx="0" cy="0" r="25" fill="#68BDF6" stroke="#5CA8DB" stroke-width="2px"/><text text-anchor="middle" pointer-events="none" y="5" font-size="10px" fill="#FFFFFF" font-family="sans-serif"> justinbie…</text></g><g class="node" transform="translate(101.07956715199373,-202.1947855874586)"><circle class="outline" cx="0" cy="0" r="25" fill="#68BDF6" stroke="#5CA8DB" stroke-width="2px"/><text text-anchor="middle" pointer-events="none" y="5" font-size="10px" fill="#FFFFFF" font-family="sans-serif"> develop…</text></g><g class="node" transform="translate(279.86893683759814,-291.94793804498806)"><circle class="outline" cx="0" cy="0" r="25" fill="#6DCE9E" stroke="#60B58B" stroke-width="2px"/><text text-anchor="middle" pointer-events="none" y="5" font-size="10px" fill="#FFFFFF" font-family="sans-serif"> Computer</text></g><g class="node" transform="translate(-120.20772931680247,-343.31855297810154)"><circle class="outline" cx="0" cy="0" r="25" fill="#68BDF6" stroke="#5CA8DB" stroke-width="2px"/><text text-anchor="middle" pointer-events="none" y="5" font-size="10px" fill="#FFFFFF" font-family="sans-serif"> _x_xx_x…</text></g><g class="node" transform="translate(15.153416412062253,-273.0095870438029)"><circle class="outline" cx="0" cy="0" r="25" fill="#6DCE9E" stroke="#60B58B" stroke-width="2px"/><text text-anchor="middle" pointer-events="none" y="5" font-size="10px" fill="#FFFFFF" font-family="sans-serif"> Fitness</text></g></g></svg>